<svg width="16" height="18" viewBox="0 0 16 18" fill="none" xmlns="http://www.w3.org/2000/svg">
<path fill-rule="evenodd" clip-rule="evenodd" d="M14.9059 3.36922C15.2301 3.36922 15.5 3.63838 15.5 3.98088V4.29754C15.5 4.63171 15.2301 4.90921 14.9059 4.90921H1.09488C0.769883 4.90921 0.5 4.63171 0.5 4.29754V3.98088C0.5 3.63838 0.769883 3.36922 1.09488 3.36922H3.52464C4.01821 3.36922 4.44775 3.01839 4.55879 2.5234L4.68603 1.95507C4.88378 1.18091 5.53458 0.666748 6.27939 0.666748H9.72061C10.4573 0.666748 11.1154 1.18091 11.3059 1.91424L11.442 2.52256C11.5522 3.01839 11.9818 3.36922 12.4762 3.36922H14.9059ZM13.6715 14.9449C13.9252 12.5808 14.3694 6.96418 14.3694 6.90751C14.3856 6.73585 14.3296 6.57335 14.2186 6.44252C14.0995 6.32002 13.9487 6.24752 13.7826 6.24752H2.22379C2.05684 6.24752 1.89799 6.32002 1.78776 6.44252C1.67592 6.57335 1.62081 6.73585 1.62891 6.90751C1.6304 6.91792 1.64634 7.11576 1.67298 7.44652C1.79134 8.91589 2.121 13.0084 2.33401 14.9449C2.48476 16.3716 3.42084 17.2682 4.77674 17.3007C5.82305 17.3249 6.90096 17.3332 8.00318 17.3332C9.04138 17.3332 10.0958 17.3249 11.1745 17.3007C12.5774 17.2766 13.5127 16.3957 13.6715 14.9449Z" fill="#CF3636"/>
</svg>
