<svg width="30" height="29" viewBox="0 0 35 34" fill="none" xmlns="http://www.w3.org/2000/svg">
<path fill-rule="evenodd" clip-rule="evenodd" d="M5.27752 17.2713C5.06114 16.8703 5.06114 16.3838 5.27752 15.9827C7.88506 11.1604 12.7019 6.98035 17.5187 6.98035C22.3355 6.98035 27.1523 11.1604 29.7598 15.9841C29.9762 16.3852 29.9762 16.8717 29.7598 17.2727C27.1523 22.095 22.3355 26.2751 17.5187 26.2751C12.7019 26.2751 7.88506 22.095 5.27752 17.2713Z" stroke="#828282" stroke-width="2.06729" stroke-linecap="round" stroke-linejoin="round"/>
<path d="M20.442 13.7042C22.0566 15.3188 22.0566 17.9367 20.442 19.5513C18.8273 21.166 16.2094 21.166 14.5948 19.5513C12.9801 17.9367 12.9801 15.3188 14.5948 13.7042C16.2094 12.0895 18.8273 12.0895 20.442 13.7042" stroke="#828282" stroke-width="1.96889" stroke-linecap="round" stroke-linejoin="round"/>
</svg>
